<svg width="70" height="66" viewBox="0 0 70 66" fill="none" xmlns="http://www.w3.org/2000/svg">
<path d="M33.8003 34.5921V39.8403H37.4205V40.7984C37.4205 43.7685 36.4693 44.8223 34.3383 46.0604C31.7933 47.5385 30.0646 48.5834 30.0469 48.594L32.7698 53.0836C32.7867 53.073 34.48 52.0508 36.9828 50.597C38.2764 49.8458 39.9107 48.7522 41.0787 46.9552C42.1555 45.2978 42.6784 43.2842 42.6784 40.7992V34.5848L33.8003 34.5921Z" fill="#1D1D1D"/>
<path fill-rule="evenodd" clip-rule="evenodd" d="M5.25785 46.5033H15.5897V41.2552C15.5897 41.2552 13.0278 41.2552 10.455 41.2552C8.67819 41.2552 7.447 41.6081 6.44518 42.5784C5.58504 43.4115 5.32531 44.6155 5.257 45.4698V39.8614C5.257 39.8614 2.67994 39.674 1.32479 41.0459C0.347431 42.0356 0 43.2688 0 45.0398C0 47.6026 0 53.1672 0 53.1672H5.25785V53.1664H17.0983V47.9182H5.25785V46.5033ZM5.257 34.5921V39.8403H17.0983V34.5921H5.257Z" fill="#1D1D1D"/>
<path fill-rule="evenodd" clip-rule="evenodd" d="M26.1973 35.7969C25.2191 36.7874 24.8717 38.0206 24.8717 39.7916C24.8717 42.3544 24.8717 53.1672 24.8717 53.1672H30.1295V34.6132C30.1287 34.6124 27.5516 34.425 26.1973 35.7969Z" fill="#1D1D1D"/>
<path d="M19.8094 53.258C21.3077 53.258 22.5223 52.046 22.5223 50.5508C22.5223 49.0556 21.3077 47.8436 19.8094 47.8436C18.3112 47.8436 17.0966 49.0556 17.0966 50.5508C17.0966 52.046 18.3112 53.258 19.8094 53.258Z" fill="#2BF39C"/>
<path fill-rule="evenodd" clip-rule="evenodd" d="M59.9285 47.4825C58.8559 47.3219 58.1939 47.1767 57.7891 47.0647V46.5033H59.1611V46.5041H64.419V34.5921H64.4181H59.1611H52.5768V39.8403H59.1611C59.1611 40.3173 59.1611 40.7919 59.1611 41.2552C58.6746 41.2552 58.204 41.2552 57.7748 41.2552C55.998 41.2552 54.7668 41.6081 53.765 42.5784C52.9049 43.4115 52.6451 44.6155 52.5768 45.4698V39.8614C52.5768 39.8614 49.9998 39.674 48.6446 41.0459C47.6664 42.0364 47.319 43.2696 47.319 45.0406C47.319 47.6034 47.319 53.168 47.319 53.168H52.5768V48.6711C52.6949 49.4037 53.0415 50.0884 53.582 50.6409C54.0323 51.1017 54.6066 51.47 55.3369 51.7685C56.2282 52.1328 57.4029 52.4119 59.146 52.6739C61.6463 53.0487 63.8784 53.4138 63.9004 53.417L64.7504 48.2378C64.7285 48.233 62.4643 47.863 59.9285 47.4825Z" fill="#1D1D1D"/>
<path d="M67.1284 53.1672C68.6266 53.1672 69.8412 51.9551 69.8412 50.4599C69.8412 48.9648 68.6266 47.7527 67.1284 47.7527C65.6301 47.7527 64.4156 48.9648 64.4156 50.4599C64.4156 51.9551 65.6301 53.1672 67.1284 53.1672Z" fill="#2BF39C"/>
<path d="M41.572 53.258C43.0702 53.258 44.2848 52.046 44.2848 50.5508C44.2848 49.0556 43.0702 47.8436 41.572 47.8436C40.0737 47.8436 38.8591 49.0556 38.8591 50.5508C38.8591 52.046 40.0737 53.258 41.572 53.258Z" fill="#2BF39C"/>
<path d="M2.0829 65.9667H0.0185547V65.054H1.62669C1.62669 65.0037 1.62669 64.951 1.62669 64.8966C1.62669 64.8139 1.61488 64.7393 1.469 64.7393H1.11482C0.493321 64.7393 0.0430098 64.289 0.0430098 63.6692C0.0430098 63.3284 0.0446963 63.0526 0.0446963 63.0526L0.0472262 62.5991H2.4843V63.5118H0.957125C0.957125 63.5621 0.957125 63.6148 0.957125 63.6692C0.957125 63.7519 0.968931 63.8266 1.11482 63.8266H1.469C2.09049 63.8266 2.5408 64.2768 2.5408 64.8966C2.5408 65.2374 2.53912 65.5132 2.53912 65.5132L2.53659 65.9667H2.0829Z" fill="#1D1D1D"/>
<path d="M22.5476 65.9667H20.4832V65.054H22.0913C22.0913 65.0037 22.0913 64.951 22.0913 64.8966C22.0913 64.8139 22.0795 64.7393 21.9337 64.7393H21.5795C20.958 64.7393 20.5077 64.289 20.5077 63.6692C20.5077 63.3284 20.5094 63.0526 20.5094 63.0526L20.5119 62.5991H22.949V63.5118H21.4218C21.4218 63.5621 21.4218 63.6148 21.4218 63.6692C21.4218 63.7519 21.4336 63.8266 21.5795 63.8266H21.9337C22.5552 63.8266 23.0055 64.2768 23.0055 64.8966C23.0055 65.2374 23.0038 65.5132 23.0038 65.5132L23.0012 65.9667H22.5476Z" fill="#1D1D1D"/>
<path d="M64.1744 65.9667H62.11V65.054H63.7182C63.7182 65.0037 63.7182 64.951 63.7182 64.8966C63.7182 64.8139 63.7064 64.7393 63.5605 64.7393H63.2063C62.5848 64.7393 62.1345 64.289 62.1345 63.6692C62.1345 63.3284 62.1362 63.0526 62.1362 63.0526L62.1387 62.5991H64.5758V63.5118H63.0486C63.0486 63.5621 63.0486 63.6148 63.0486 63.6692C63.0486 63.7519 63.0604 63.8266 63.2063 63.8266H63.5605C64.182 63.8266 64.6323 64.2768 64.6323 64.8966C64.6323 65.2374 64.6306 65.5132 64.6306 65.5132L64.6281 65.9667H64.1744Z" fill="#1D1D1D"/>
<path fill-rule="evenodd" clip-rule="evenodd" d="M54.3771 62.5626V62.5618H53.3627V62.5626L52.516 64.0651L51.6702 62.5626V62.5618H50.6541V65.9992H51.6702V64.3653L52.0084 64.9664H53.0237L53.3627 64.3653V65.9992H54.3771V62.5634L54.378 62.5626H54.3771Z" fill="#1D1D1D"/>
<path fill-rule="evenodd" clip-rule="evenodd" d="M30.3091 62.5626V63.5759H31.2047V65.9992H32.22V63.5759H33.1164V62.5626H30.3091Z" fill="#1D1D1D"/>
<path fill-rule="evenodd" clip-rule="evenodd" d="M43.0502 63.5556V62.5626H41.5964V62.5618H40.5819V62.5626V63.5556V63.7941V64.7677V65.0062V66H43.0502V65.0062H41.5964V64.7677H42.6522V63.7941H41.5964V63.5556H43.0502Z" fill="#1D1D1D"/>
<path fill-rule="evenodd" clip-rule="evenodd" d="M13.2884 62.5626H12.1736L11.5369 63.5459L10.8994 62.5626H9.78461L11.0394 64.4991V65.9992H12.0539V64.4691L13.2884 62.5626Z" fill="#1D1D1D"/>
<path d="M33.2598 25.3736C46.377 25.3736 57.0107 19.6935 57.0107 12.6868C57.0107 5.68007 46.377 0 33.2598 0C20.1425 0 9.50879 5.68007 9.50879 12.6868C9.50879 19.6935 20.1425 25.3736 33.2598 25.3736Z" fill="#2BF39C"/>
<path fill-rule="evenodd" clip-rule="evenodd" d="M33.1156 10.7511H29.7104L32.118 8.34726L29.7964 6.02943L27.388 8.43325V5.03561H24.1043V8.43244L21.6976 6.03024L19.376 8.34807L21.7836 10.7511H18.3784V14.0286H21.7836L19.376 16.4317L21.6976 18.7495L24.1043 16.3465C24.1043 18.3276 24.1043 19.7457 24.1043 19.7457H27.388V16.3448L29.7964 18.7487L32.118 16.4308L29.7104 14.0278H33.1147V10.7511H33.1156Z" fill="#1D1D1D"/>
<path fill-rule="evenodd" clip-rule="evenodd" d="M36.4137 5.53616L38.3794 10.5458L38.5868 13.7033V5.50696H41.922C41.922 5.50696 41.922 10.7048 41.922 13.683L42.1143 10.5628L44.0943 5.50696H47.4109L42.0401 19.2192H41.9211H41.7829L41.7888 19.2338H38.4696L33.0945 5.53616H36.4137Z" fill="#1D1D1D"/>
</svg>
